<?xml version="1.0"?>
<svg xmlns="http://www.w3.org/2000/svg" xmlns:xlink="http://www.w3.org/1999/xlink" xmlns:svgjs="http://svgjs.com/svgjs" version="1.1" width="512" height="512" x="0" y="0" viewBox="0 0 24 24" style="enable-background:new 0 0 512 512" xml:space="preserve"><g><g xmlns="http://www.w3.org/2000/svg" id="_01_align_center" data-name="01 align center"><path d="M20,0H5A3,3,0,0,0,2,3V21a3,3,0,0,0,3,3H22V2A2,2,0,0,0,20,0Zm0,18H8V2H20ZM5,2H6V18H5.017A3,3,0,0,0,4,18.187V3A1,1,0,0,1,5,2ZM5,22a1,1,0,0,1-1-.992h.015a1,1,0,0,1,1-1.008H20v2Z" fill="#ffffff" data-original="#000000"/></g></g></svg>
